<svg width="69" height="77" viewBox="0 0 69 77" fill="none" xmlns="http://www.w3.org/2000/svg">
    <path fill-rule="evenodd" clip-rule="evenodd" d="M42.2719 3.99545C44.3542 3.92557 45.9999 3.0589 45.9999 2C45.9999 0.895416 44.2091 0 41.9999 0C39.7908 0 37.9999 0.895416 37.9999 2C37.9999 3.02203 39.5332 3.86502 41.5123 3.98529L41.1783 4.38284L53.6783 14.8828L54.4999 15.573V14.5V12.25H59.9999H60.2211L60.3699 12.0863L61.9999 10.2933V19.5V20.9254L62.8904 19.8124L64.2201 18.1502L66.0096 27.0981L66.229 28.1946L66.8999 27.3L67.4999 26.5V38H68.4999V25V23.5L67.5999 24.7L66.7709 25.8054L64.9902 16.9019L64.7798 15.8498L64.1095 16.6877L62.9999 18.0746V9V7.7067L62.13 8.66367L59.7787 11.25H54.4999V9H53.4999V11.75V13.427L42.2719 3.99545ZM39.24 3.57291L27.7501 10.5667L16.7605 16.5611L16.4999 16.7032V17V26.3099L0.626221 44.1678L1.37366 44.8322L17.3737 26.8322L17.4999 26.6901V26.5V17.2968L28.2394 11.4389L28.2498 11.4333L28.2599 11.4271L39.7599 4.42709L39.24 3.57291ZM40.5999 4.20001L30.0999 18.2L29.3254 19.2327L30.5935 18.9912L40.155 17.1699L34.543 29.7969L34.4069 30.1033L34.6386 30.3456L45.3616 41.556L42.5839 45.7227L42.5562 45.7642L42.5373 45.8104L30.0373 76.3104L30.9626 76.6896L43.4437 46.2358L46.416 41.7773L46.6382 41.444L46.3613 41.1544L35.593 29.8967L41.4568 16.7031L41.8448 15.8301L40.9064 16.0088L31.6745 17.7673L41.3999 4.79999L40.5999 4.20001Z" fill="#F8EEEE"/>
</svg>